<?xml version="1.0" encoding="utf-8"?>
<!-- Generator: Adobe Illustrator 16.0.0, SVG Export Plug-In . SVG Version: 6.00 Build 0)  -->
<!DOCTYPE svg PUBLIC "-//W3C//DTD SVG 1.1//EN" "http://www.w3.org/Graphics/SVG/1.1/DTD/svg11.dtd">
<svg version="1.1" xmlns="http://www.w3.org/2000/svg" xmlns:xlink="http://www.w3.org/1999/xlink" x="0px" y="0px" width="1920px"
	 height="1080px" viewBox="0 0 1920 1080" enable-background="new 0 0 1920 1080" xml:space="preserve">
<g id="bg" display="none">
	<rect display="inline" fill="#B7DCDD" width="1920" height="1080"/>
	<rect y="761.841" display="inline" fill="#41374A" width="1920" height="318.159"/>
	<g display="inline">
		<path fill="#E8F6F8" d="M1671.803,169.609c-20.604,0-39.308,8.082-53.157,21.229c-10.729-12.966-26.943-21.229-45.088-21.229
			c-24.956,0-46.249,15.634-54.653,37.638c-1.271-0.083-2.551-0.14-3.844-0.14c-32.307,0-58.497,26.189-58.497,58.497
			c0,13.581,4.641,26.07,12.405,35.998h-150.396v0.02c-6.202,0-11.229,5.028-11.229,11.23s5.027,11.23,11.229,11.23v0.02h353.229
			c42.662,0,77.246-34.584,77.246-77.246S1714.465,169.609,1671.803,169.609z"/>
		<path fill="#E8F6F8" d="M1279.835,301.52c-0.446,0-0.884,0.032-1.315,0.083h-15.203c-0.432-0.05-0.869-0.083-1.315-0.083
			c-6.259,0-11.332,5.074-11.332,11.332s5.073,11.332,11.332,11.332c0.446,0,0.884-0.032,1.315-0.083h15.203
			c0.432,0.05,0.869,0.083,1.315,0.083c6.259,0,11.332-5.074,11.332-11.332S1286.094,301.52,1279.835,301.52z"/>
	</g>
	<g display="inline">
		<path fill="#E8F6F8" d="M680.425,282.551c-17.213,0-32.839,6.752-44.409,17.735c-8.964-10.833-22.51-17.735-37.668-17.735
			c-20.85,0-38.638,13.062-45.66,31.444c-1.062-0.069-2.131-0.117-3.211-0.117c-26.99,0-48.871,21.88-48.871,48.871
			c0,11.346,3.877,21.78,10.364,30.074H385.324v0.016c-5.181,0-9.381,4.201-9.381,9.382c0,5.182,4.2,9.382,9.381,9.382v0.017
			h295.101c35.642,0,64.534-28.893,64.534-64.534S716.066,282.551,680.425,282.551z"/>
		<path fill="#E8F6F8" d="M352.961,392.753c-0.373,0-0.738,0.027-1.099,0.069h-12.701c-0.36-0.042-0.726-0.069-1.099-0.069
			c-5.229,0-9.467,4.239-9.467,9.467s4.238,9.467,9.467,9.467c0.373,0,0.738-0.027,1.099-0.069h12.701
			c0.361,0.042,0.727,0.069,1.099,0.069c5.229,0,9.467-4.239,9.467-9.467S358.19,392.753,352.961,392.753z"/>
	</g>
	<g display="inline">
		<path fill="#E8F6F8" d="M76.899,70.475c-9.215,0-17.58,3.615-23.773,9.494c-4.799-5.799-12.05-9.494-20.165-9.494
			c-11.162,0-20.685,6.992-24.443,16.833c-0.568-0.037-1.141-0.063-1.719-0.063c-14.449,0-26.162,11.713-26.162,26.162
			c0,6.074,2.076,11.66,5.548,16.1h-67.263v0.009c-2.774,0-5.022,2.249-5.022,5.022c0,2.774,2.248,5.022,5.022,5.022v0.009H76.899
			c19.08,0,34.547-15.467,34.547-34.547C111.447,85.942,95.979,70.475,76.899,70.475z"/>
	</g>
</g>
<g id="bg_buildings" display="none">
	<path display="inline" fill="#FACBD4" d="M0,467.911"/>
	<polygon display="inline" fill="#A9CBE2" points="0,519.912 71.731,519.912 71.731,359.421 161.017,270.135 233.748,359.421 
		233.748,521.933 362.428,521.933 486.255,521.933 486.255,282.551 875.812,282.551 875.812,575.848 1292.306,575.848 
		1292.306,374.754 1917.45,374.754 1917.45,761.841 0,761.841 	"/>
	<path display="inline" fill="#A9CBE2" d="M328.595,531.651c0,7.828-6.346,14.173-14.173,14.173h-27.497
		c-7.828,0-14.173-6.346-14.173-14.173V305.876c0-7.828,6.346-14.173,14.173-14.173h27.497c7.828,0,14.173,6.346,14.173,14.173
		V531.651z"/>
	<path display="inline" fill="#A9CBE2" d="M314.421,531.651c0,7.828-6.346,14.173-14.173,14.173H187.915
		c-7.828,0-14.173-6.346-14.173-14.173V376.179c0-7.828,6.346-14.173,14.173-14.173h112.333c7.828,0,14.173,6.346,14.173,14.173
		V531.651z"/>
</g>
<g id="Layer_7">
	<rect x="1397.158" y="224.234" fill="#8C6A87" width="138.016" height="537.787"/>
	<g>
		<g>
			<g>
				<rect x="1496.414" y="244.125" fill="#563E5C" width="12.252" height="16.069"/>
				<rect x="1496.473" y="267.5" fill="#563E5C" width="12.254" height="16.069"/>
				<rect x="1496.531" y="290.875" fill="#563E5C" width="12.254" height="16.069"/>
			</g>
			<g>
				<rect x="1496.354" y="312.535" fill="#563E5C" width="12.254" height="16.069"/>
				<rect x="1496.412" y="335.909" fill="#563E5C" width="12.254" height="16.069"/>
				<rect x="1496.471" y="359.285" fill="#563E5C" width="12.254" height="16.069"/>
			</g>
		</g>
		<g>
			<g>
				<rect x="1496.502" y="382.364" fill="#563E5C" width="12.254" height="16.069"/>
				<rect x="1496.561" y="405.738" fill="#563E5C" width="12.254" height="16.069"/>
				<rect x="1496.619" y="429.114" fill="#563E5C" width="12.254" height="16.069"/>
			</g>
			<g>
				<rect x="1496.443" y="450.773" fill="#563E5C" width="12.252" height="16.069"/>
				<rect x="1496.502" y="474.148" fill="#563E5C" width="12.254" height="16.069"/>
				<rect x="1496.561" y="497.523" fill="#563E5C" width="12.254" height="16.069"/>
			</g>
		</g>
		<g>
			<g>
				<rect x="1496.592" y="522.317" fill="#563E5C" width="12.252" height="16.069"/>
				<rect x="1496.65" y="545.691" fill="#563E5C" width="12.254" height="16.07"/>
				<rect x="1496.709" y="569.067" fill="#563E5C" width="12.254" height="16.069"/>
			</g>
			<g>
				<rect x="1496.531" y="590.727" fill="#563E5C" width="12.254" height="16.07"/>
				<rect x="1496.59" y="614.102" fill="#563E5C" width="12.254" height="16.069"/>
				<rect x="1496.648" y="637.478" fill="#563E5C" width="12.254" height="16.068"/>
			</g>
		</g>
		<g>
			<g>
				<rect x="1496.414" y="658.943" fill="#563E5C" width="12.252" height="16.069"/>
				<rect x="1496.473" y="682.318" fill="#563E5C" width="12.254" height="16.068"/>
			</g>
		</g>
	</g>
	<g>
		<g>
			<g>
				<rect x="1459.922" y="244.125" fill="#563E5C" width="12.252" height="16.069"/>
				<rect x="1459.98" y="267.5" fill="#563E5C" width="12.254" height="16.069"/>
				<rect x="1460.039" y="290.875" fill="#563E5C" width="12.254" height="16.069"/>
			</g>
			<g>
				<rect x="1459.861" y="312.535" fill="#563E5C" width="12.254" height="16.069"/>
				<rect x="1459.92" y="335.909" fill="#563E5C" width="12.254" height="16.069"/>
				<rect x="1459.979" y="359.285" fill="#563E5C" width="12.254" height="16.069"/>
			</g>
		</g>
		<g>
			<g>
				<rect x="1460.01" y="382.364" fill="#563E5C" width="12.254" height="16.069"/>
				<rect x="1460.068" y="405.738" fill="#563E5C" width="12.254" height="16.069"/>
				<rect x="1460.127" y="429.114" fill="#563E5C" width="12.254" height="16.069"/>
			</g>
			<g>
				<rect x="1459.951" y="450.773" fill="#563E5C" width="12.252" height="16.069"/>
				<rect x="1460.01" y="474.148" fill="#563E5C" width="12.254" height="16.069"/>
				<rect x="1460.068" y="497.523" fill="#563E5C" width="12.254" height="16.069"/>
			</g>
		</g>
		<g>
			<g>
				<rect x="1460.1" y="522.317" fill="#563E5C" width="12.252" height="16.069"/>
				<rect x="1460.158" y="545.691" fill="#563E5C" width="12.254" height="16.07"/>
				<rect x="1460.217" y="569.067" fill="#563E5C" width="12.254" height="16.069"/>
			</g>
			<g>
				<rect x="1460.039" y="590.727" fill="#563E5C" width="12.254" height="16.07"/>
				<rect x="1460.098" y="614.102" fill="#563E5C" width="12.254" height="16.069"/>
				<rect x="1460.156" y="637.478" fill="#563E5C" width="12.254" height="16.068"/>
			</g>
		</g>
		<g>
			<g>
				<rect x="1459.922" y="658.943" fill="#563E5C" width="12.252" height="16.069"/>
				<rect x="1459.98" y="682.318" fill="#563E5C" width="12.254" height="16.068"/>
			</g>
		</g>
	</g>
	<g>
		<g>
			<g>
				<rect x="1443.818" y="244.125" fill="#563E5C" width="12.252" height="16.069"/>
				<rect x="1443.877" y="267.5" fill="#563E5C" width="12.254" height="16.069"/>
				<rect x="1443.936" y="290.875" fill="#563E5C" width="12.254" height="16.069"/>
			</g>
			<g>
				<rect x="1443.758" y="312.535" fill="#563E5C" width="12.254" height="16.069"/>
				<rect x="1443.816" y="335.909" fill="#563E5C" width="12.254" height="16.069"/>
				<rect x="1443.875" y="359.285" fill="#563E5C" width="12.254" height="16.069"/>
			</g>
		</g>
		<g>
			<g>
				<rect x="1443.906" y="382.364" fill="#563E5C" width="12.254" height="16.069"/>
				<rect x="1443.965" y="405.738" fill="#563E5C" width="12.254" height="16.069"/>
				<rect x="1444.023" y="429.114" fill="#563E5C" width="12.254" height="16.069"/>
			</g>
			<g>
				<rect x="1443.848" y="450.773" fill="#563E5C" width="12.252" height="16.069"/>
				<rect x="1443.906" y="474.148" fill="#563E5C" width="12.254" height="16.069"/>
				<rect x="1443.965" y="497.523" fill="#563E5C" width="12.254" height="16.069"/>
			</g>
		</g>
		<g>
			<g>
				<rect x="1443.996" y="522.317" fill="#563E5C" width="12.252" height="16.069"/>
				<rect x="1444.055" y="545.691" fill="#563E5C" width="12.254" height="16.07"/>
				<rect x="1444.113" y="569.066" fill="#563E5C" width="12.254" height="16.07"/>
			</g>
			<g>
				<rect x="1443.936" y="590.727" fill="#563E5C" width="12.254" height="16.07"/>
				<rect x="1443.994" y="614.102" fill="#563E5C" width="12.254" height="16.068"/>
				<rect x="1444.053" y="637.477" fill="#563E5C" width="12.254" height="16.068"/>
			</g>
		</g>
		<g>
			<g>
				<rect x="1443.818" y="658.943" fill="#563E5C" width="12.252" height="16.068"/>
				<rect x="1443.877" y="682.318" fill="#563E5C" width="12.254" height="16.068"/>
			</g>
		</g>
	</g>
	<g>
		<g>
			<g>
				<rect x="1406.988" y="245.63" fill="#563E5C" width="12.254" height="16.069"/>
				<rect x="1407.047" y="269.005" fill="#563E5C" width="12.254" height="16.069"/>
				<rect x="1407.105" y="292.38" fill="#563E5C" width="12.254" height="16.069"/>
			</g>
			<g>
				<rect x="1406.93" y="314.04" fill="#563E5C" width="12.252" height="16.069"/>
				<rect x="1406.988" y="337.415" fill="#563E5C" width="12.254" height="16.069"/>
				<rect x="1407.047" y="360.79" fill="#563E5C" width="12.254" height="16.069"/>
			</g>
		</g>
		<g>
			<g>
				<rect x="1407.078" y="383.869" fill="#563E5C" width="12.252" height="16.069"/>
				<rect x="1407.137" y="407.244" fill="#563E5C" width="12.254" height="16.069"/>
				<rect x="1407.195" y="430.619" fill="#563E5C" width="12.254" height="16.069"/>
			</g>
			<g>
				<rect x="1407.018" y="452.279" fill="#563E5C" width="12.254" height="16.069"/>
				<rect x="1407.076" y="475.653" fill="#563E5C" width="12.254" height="16.069"/>
				<rect x="1407.135" y="499.029" fill="#563E5C" width="12.254" height="16.069"/>
			</g>
		</g>
		<g>
			<g>
				<rect x="1407.166" y="523.823" fill="#563E5C" width="12.254" height="16.069"/>
				<rect x="1407.225" y="547.197" fill="#563E5C" width="12.254" height="16.07"/>
				<rect x="1407.283" y="570.572" fill="#563E5C" width="12.254" height="16.07"/>
			</g>
			<g>
				<rect x="1407.107" y="592.232" fill="#563E5C" width="12.252" height="16.07"/>
				<rect x="1407.166" y="615.607" fill="#563E5C" width="12.254" height="16.068"/>
				<rect x="1407.225" y="638.982" fill="#563E5C" width="12.254" height="16.068"/>
			</g>
		</g>
		<g>
			<g>
				<rect x="1406.988" y="660.449" fill="#563E5C" width="12.254" height="16.068"/>
				<rect x="1407.047" y="683.824" fill="#563E5C" width="12.254" height="16.068"/>
			</g>
		</g>
	</g>
	<rect x="-10" y="414.021" fill="#B2B1B2" width="1509.15" height="347.819"/>
	<g>
		<rect x="1178.354" y="511.125" fill="#563E5C" width="37.809" height="49.583"/>
		<rect x="1240.357" y="511.125" fill="#563E5C" width="37.809" height="49.583"/>
		<rect x="1302" y="511.125" fill="#563E5C" width="37.809" height="49.583"/>
		<rect x="1178.533" y="583.248" fill="#563E5C" width="37.811" height="49.582"/>
		<rect x="1240.539" y="583.248" fill="#563E5C" width="37.809" height="49.582"/>
		<rect x="1302.182" y="583.248" fill="#563E5C" width="37.809" height="49.582"/>
		<rect x="1178.715" y="655.374" fill="#563E5C" width="37.809" height="49.583"/>
		<rect x="1240.719" y="655.374" fill="#563E5C" width="37.809" height="49.583"/>
		<rect x="1302.361" y="655.374" fill="#563E5C" width="37.809" height="49.583"/>
	</g>
	<g>
		<rect x="679.387" y="511.127" fill="#563E5C" width="37.809" height="49.583"/>
		<rect x="741.391" y="511.127" fill="#563E5C" width="37.81" height="49.583"/>
		<rect x="803.034" y="511.127" fill="#563E5C" width="37.809" height="49.583"/>
		<rect x="679.568" y="583.25" fill="#563E5C" width="37.81" height="49.582"/>
		<rect x="741.573" y="583.25" fill="#563E5C" width="37.809" height="49.582"/>
		<rect x="803.215" y="583.25" fill="#563E5C" width="37.809" height="49.582"/>
		<rect x="679.749" y="655.376" fill="#563E5C" width="37.81" height="49.583"/>
		<rect x="741.752" y="655.376" fill="#563E5C" width="37.81" height="49.583"/>
		<rect x="803.395" y="655.376" fill="#563E5C" width="37.81" height="49.583"/>
	</g>
	<g>
		<path fill="#544353" d="M407.262,153.417c0,0,12.5-57,160-14c35,66.5,47.5,164.876,47.5,166.938s-7.5,44.667-7.5,44.667
			l-122.5-1.02L407.262,153.417z"/>
		<g>
			<g>
				<polygon fill="#227C78" points="536.595,228.874 508.27,243.355 510.885,285.411 550.733,261.813 				"/>
				<polygon fill="#1B5C5C" points="510.885,285.411 512.188,306.355 558.262,279.355 550.733,261.813 				"/>
			</g>
			<circle fill="#1CA59B" cx="549.696" cy="252.271" r="28.037"/>
			<circle fill="#238581" cx="550.696" cy="252.271" r="22.537"/>
			<circle fill="#1B5C5C" cx="550.733" cy="252.271" r="8.829"/>
		</g>
		<rect x="309.262" y="387.021" fill="#B6B6B7" stroke="#563E5C" stroke-miterlimit="10" width="324.934" height="304"/>
		<rect x="299.262" y="414.021" fill="#8C6A87" width="343" height="13"/>
		<g>
			<path fill="#B6B6B8" stroke="#563E5C" stroke-miterlimit="10" d="M586.262,168.021c-75-80-177-39-187-34c-107,62-90,164-90,164
				v52c0,0,201,0,277,0S601.262,187.021,586.262,168.021z M586.929,345.021H508.27c0,0-38.675-177.334-46.008-193.334
				s-6.611-22.134-6.611-22.134s105.278-34.532,131.278,113.468C588.262,339.021,586.929,345.021,586.929,345.021z"/>
		</g>
		<rect x="299.262" y="365.021" fill="#8C6A87" width="345" height="10.667"/>
		<path fill="#563E5C" d="M306.262,379.355c0,0,3,2.667,3,7.667c10.667,0,323.333,0,323.333,0s-0.166-8.833,4.334-11.333
			c-13.666,0-332.667,0-332.667,0L306.262,379.355z"/>
		<g>
			<path fill="#8C6A87" stroke="#563E5C" stroke-miterlimit="10" d="M462.929,351.021v-89.333c0,0-8.667-128-76.667-128
				c0-7.333,0-14.594,0-14.594s42.001-4.739,56.667,19.261s51.833,187.167,51.833,187.167l-15.167,24.5L462.929,351.021z"/>
			<path fill="#B6B6B8" stroke="#563E5C" stroke-miterlimit="10" d="M386.262,119.094h45.333c0,0,64,5.928,80,131.261
				c1.334,94.667,0,99.667,0,99.667h-39.866l0.033-79C471.762,271.021,466.929,125.166,386.262,119.094z"/>
		</g>
		<g>
			<path fill="#8C6A87" stroke="#563E5C" stroke-miterlimit="10" d="M584.937,350.711v-89.333c0,0-16.008-125.794-76.667-128
				c0-7.333,0-14.594,0-14.594s42.001-4.739,56.667,19.261s51.833,187.167,51.833,187.167l-15.167,24.5L584.937,350.711z"/>
			<path fill="#9D9D9D" stroke="#563E5C" stroke-miterlimit="10" d="M508.27,118.784h45.333c0,0,64,5.928,80,131.261
				c1.334,94.667,0,99.667,0,99.667h-39.866l0.033-79C593.77,270.711,588.937,124.856,508.27,118.784z"/>
		</g>
		<rect x="299.262" y="313.688" fill="#8C6A87" width="345" height="10"/>
		<rect x="299.262" y="323.688" fill="#563E5C" width="345" height="10"/>
		<rect x="299.229" y="345.021" fill="#8C6A87" width="345" height="10"/>
		<rect x="299.229" y="355.021" fill="#563E5C" width="345" height="10"/>
		<path fill="#563E5C" d="M352.761,697.521c0,5.247-4.253,9.5-9.5,9.5l0,0c-5.247,0-9.5-4.253-9.5-9.5v-236
			c0-5.247,4.253-9.5,9.5-9.5l0,0c5.247,0,9.5,4.253,9.5,9.5V697.521z"/>
		<path fill="#563E5C" d="M410.262,697.521c0,5.247-4.253,9.5-9.5,9.5l0,0c-5.247,0-9.5-4.253-9.5-9.5v-236
			c0-5.247,4.253-9.5,9.5-9.5l0,0c5.247,0,9.5,4.253,9.5,9.5V697.521z"/>
		<rect x="299.262" y="703.021" fill="#B6B6B7" stroke="#563E5C" stroke-miterlimit="10" width="345" height="59"/>
		<polygon fill="#8C6A87" stroke="#563E5C" stroke-miterlimit="10" points="644.262,703.021 299.262,703.021 309.262,691.021 
			634.196,691.021 		"/>
		<polygon opacity="0.2" points="539.929,387.021 539.929,691.021 548.262,703.021 548.596,761.932 644.262,761.932 
			644.262,703.021 634.196,691.021 634.196,427.021 642.262,427.021 642.262,414.021 634.196,414.021 634.196,387.021 		"/>
	</g>
	<path d="M746.262,390.583"/>
	<polygon fill="#664B6D" points="902.431,553.59 800.375,762.021 1233.57,761.841 1143.943,553.59 	"/>
	<circle fill="#B6B6B7" stroke="#563E5C" stroke-miterlimit="10" cx="1016.972" cy="501" r="228.29"/>
	<path fill="#8C6A87" d="M1259.262,498c0,5.523-4.477,10-10,10h-460c-5.522,0-10-4.477-10-10l0,0c0-5.523,4.478-10,10-10h460
		C1254.785,488,1259.262,492.477,1259.262,498L1259.262,498z"/>
	<path fill="#B6B6B7" stroke="#563E5C" stroke-miterlimit="10" d="M1450.063,285.467"/>
	<path fill="#664B6D" d="M1018.137,244.051c-2.35,0.021-4.697,0.068-7.041,0.153c-4.089,7.257-7.199,17.915-0.937,29.539
		c2.322-0.104,4.649-0.175,6.978-0.208c42.047-0.592,84.74,10.592,122.936,34.735c59.709,37.743,95.541,98.985,103.094,164.083
		c0.496,4.249,0.874,8.514,1.124,12.79c8.956,2.204,19.463,2.235,29.256-4.07c-0.269-3.929-0.623-7.851-1.073-11.759
		c-8.459-73.766-49.012-143.188-116.659-185.947C1113.025,256.321,1065.253,243.646,1018.137,244.051z"/>
	<ellipse fill="#8C6A87" cx="938.302" cy="405.726" rx="80.96" ry="35.37"/>
	<g opacity="0.2">
		<path d="M1245.262,501.276c0-126.081-102.209-228.29-228.289-228.29c-33.041,0-64.438,7.03-92.79,19.659
			c5.218-0.357,10.48-0.553,15.789-0.553c126.081,0,228.29,102.209,228.29,228.29c0,93.04-55.664,173.07-135.5,208.632
			C1151.475,720.901,1245.262,622.049,1245.262,501.276z"/>
	</g>
	<rect x="109.054" y="511.129" fill="#563E5C" width="37.809" height="49.583"/>
	<rect x="171.058" y="511.129" fill="#563E5C" width="37.81" height="49.583"/>
	<rect x="232.7" y="511.129" fill="#563E5C" width="37.809" height="49.583"/>
	<rect x="109.234" y="583.252" fill="#563E5C" width="37.809" height="49.582"/>
	<rect x="171.239" y="583.252" fill="#563E5C" width="37.809" height="49.582"/>
	<rect x="232.881" y="583.252" fill="#563E5C" width="37.809" height="49.582"/>
	<rect x="109.416" y="655.378" fill="#563E5C" width="37.809" height="49.583"/>
	<rect x="171.419" y="655.378" fill="#563E5C" width="37.809" height="49.583"/>
	<rect x="233.062" y="655.378" fill="#563E5C" width="37.809" height="49.583"/>
	<rect x="1535.174" y="224.234" fill="#664B6D" width="56.088" height="537.787"/>
	<rect x="1397.158" y="215" fill="#563E5C" width="194.104" height="9.234"/>
</g>
<g id="me" display="none">
	<g display="inline">
		<path fill="#FBD3DE" stroke="#F1656A" stroke-miterlimit="10" d="M258.798,483.453c0,0-10.477,34.113-13.067,43.439
			s20.182,2.563,33.476-12.415S260.096,483.906,258.798,483.453z"/>
		<path fill="#F1686E" stroke="#BF525D" stroke-miterlimit="10" d="M255.28,487.092c0,0-7.296,28.5-12.374,35.658
			c-6.959,9.809-2.176-20.25-0.416-27.375S255.28,487.092,255.28,487.092z"/>
		<path fill="#F1686E" stroke="#BF525D" stroke-miterlimit="10" d="M254.5,484.217c0,0-8.249,11.752-7.187,19.768
			s-1.582,16.515-1.582,16.515s13.868-24.074,11.818-31.912S254.5,484.217,254.5,484.217z"/>
		<path fill="#FBD3DE" stroke="#F1656A" stroke-miterlimit="10" d="M323.214,426.327c0,0,4.171,8.285,5.036,10.798
			c0.864,2.513,0.673,6.886,1.477,8.5c0.804,1.614,2.929,11.478,3.98,12.658c-1.275,2.727-9.314,6.858-7.843,11.161
			s3.538,11.652,6.51,15.182c1.629,2.856,3.927,6.654-2.198,9.963c-3.171,0.412-7.803,3.373-4.49,6.809
			c-0.085,1.488-1.519,2.329-3.401,3.267c-0.893,1.89-0.708,4.432,0.372,6.169c-0.703,0.941-2.277,2.345-5.112,4.273
			c0.078,3.215,2.411,12.045-3.359,13.731c-2.007,0.483-27.332-1.169-43.698-15.598c-3.045-5.493-5.67-12.474-6.362-16.041
			c-0.692-3.567-1.396-5.94-1.416-6.24c-0.021-0.3-2.589,2.839-5.575,2.183s-7.075-3.578-7.641-5.439s-1.368-4.146-2.37-4.913
			c-1.001-0.767-6.544-12.206-2.173-18.153c2.187-2.974,6.918-8.713,11.658-6.091C255.724,456.404,268.523,421.188,323.214,426.327z
			"/>
		<path fill="#F1656A" d="M255.857,463.542c0,0-0.448,1.951,0.393,2.915c0.842,0.963,0.576,2.011-0.215,2.47
			c-0.792,0.459-1.756,2.211-1.314,2.705c0.44,0.493-0.669,2.931-1.394,3.524c-0.724,0.593-2.612,5.563,0.688,3.66
			c0.93-0.283,2.718,0.455,2.84,1.581c0.913,1.003,4.082,3.349,4.409,2.192c0.328-1.157,0.408-2.552-0.346-3.081
			s-1.854-3.801-1.301-4.684c0.555-0.883-1.031-1.553-1.842-1.729s-1.344-0.338-0.037-2.615c1.306-2.277,2.492-4.431,1.477-5.926
			S256.582,462.948,255.857,463.542z"/>
		<path fill="#F1656A" d="M326.369,492.019c0,0-2.449-0.924-3.329,0.108c-0.88,1.033,0.028,1.458,0.69,1.645
			C324.391,493.959,328.578,493.863,326.369,492.019z"/>
		<path fill="#F1656A" d="M318.401,488.542c0,0-3.223,4.106-0.585,5.296c0.725,0.046-1.546-2.61,0.883-4.034
			C321.128,488.379,318.401,488.542,318.401,488.542z"/>
		<path fill="#F1686E" stroke="#BF525D" stroke-miterlimit="10" d="M331.323,460.826c0,0-3.502,3.212-3.688,3.537
			c-0.187,0.326-15.958-3.707-21.916-0.353C306.543,462.32,314.053,459.28,331.323,460.826z"/>
		<path fill="#217B78" stroke="#1A5454" stroke-miterlimit="10" d="M266.746,467.336c0,0-3.357-5.604-8.816-8.329
			c-0.621-0.075-0.561-0.247-0.561-0.247l-0.681-0.573"/>
		<path fill="#FBD3DE" stroke="#F1656A" stroke-miterlimit="10" d="M263.237,477.14c0,0,2.365,8.272-0.527,13.818"/>
		<path fill="#F1656A" d="M249.725,465.356c0,0-3.255,6.011-2.576,8.513c0.678,2.502,2.656,6.423,3.647,7.375
			c0.99,0.953-0.302,1.364-0.849,0.475c-0.547-0.89-7.859-10.752-1.877-16.159C249.219,465.065,250.112,464.604,249.725,465.356z"/>
		<g>
			<path fill="#A43A56" stroke="#F1656A" stroke-miterlimit="10" d="M263.899,462.917c0,0-6.32-3.784-7.372-4.228
				c2.717,0.118,13.31,2.253,16.595,2.889s33.938,4.477,33.938,4.477s2.456-2.622,3.561-2.857c3.57-0.762,14.646-0.944,17.302,1.661
				c1.799,4.128,3.256,12.387,1.598,15.134c-1.579,2.616-18.024-1.402-19.542-2.945s-2.021-3.678-2.021-3.678
				s0.013-0.356-4.152-1.304C299.639,471.118,263.899,462.917,263.899,462.917z"/>
			<path fill="#562332" d="M311.443,465.111c0,0,12.915-1.455,15.114,0.238s3.539,12.044,1.862,13.964
				c-1.678,1.92-16.317-2.537-16.891-3.298C310.957,475.255,307.005,467.321,311.443,465.111z"/>
		</g>
		<path fill="#F1686E" stroke="#BF525D" stroke-miterlimit="10" d="M274.331,455.188c0,0-12.206,8.529-17.514,6.484
			c1.417,2.315,5.413,6.238,11.281,2.548c5.867-3.691,4.077-1.662,4.399-2.783C272.818,460.316,274.331,455.188,274.331,455.188z"/>
		<path fill="#F1686E" stroke="#BF525D" stroke-miterlimit="10" d="M270.803,451.845c0,0-12.206,8.529-17.514,6.484
			c1.417,2.315,5.413,6.238,11.281,2.548c5.867-3.691,4.077-1.662,4.399-2.783C269.29,456.973,270.803,451.845,270.803,451.845z"/>
	</g>
	<g display="inline">
		<path fill="#FBD3DE" stroke="#F1656A" stroke-miterlimit="10" d="M206.245,626.634c0,0-5.946,1.143-6.464,8.674
			c-0.518,7.531,0.911,10.734-3.07,12.206c-3.981,1.474-10.966,4.29-11.681,4.823c-0.716,0.533-2.609,6.902,2.065,6.643
			c3.078-1.05,6.756-0.917,5.307,0.401c-1.448,1.318-3.846,6.49,2.43,6.242c3.563-1.695,5.004-1.5,5.91-0.564
			s3.799-0.224,6.711-4.485c2.913-4.263,8.455-10.09,9.21-11.202c0.755-1.111,3.014-12.792,1.527-16.581
			C216.707,629.002,206.245,626.634,206.245,626.634z"/>
		<path fill="#CCE1F0" stroke="#788389" stroke-width="4" stroke-miterlimit="10" d="M203.045,631.401
			c-3.32-3.104-3.494-8.313-0.39-11.633l62.929-67.285c3.104-3.32,8.312-3.494,11.632-0.39l9.771,9.139
			c3.32,3.104,3.494,8.313,0.39,11.632l-62.929,67.286c-3.104,3.319-8.313,3.494-11.632,0.389L203.045,631.401z"/>
	</g>
	<g display="inline">
		<path fill="#CCE1F0" stroke="#788389" stroke-width="4" stroke-miterlimit="10" d="M334.725,732.318c0,0,30.776-11.613,36.002,0
			c5.226,11.613-29.034,41.809-38.906,37.744s-15.678-17.563-16.84-21.267C313.821,745.094,334.725,732.318,334.725,732.318z"/>
		<path fill="#98A6B0" stroke="#788389" stroke-width="4" stroke-miterlimit="10" d="M289.432,651.119
			c0,0,62.713,74.231,58.648,82.941c-4.064,8.71-25.205,17.526-29.85,21.011c-4.646,3.484-41.864-46.005-46.945-56.445
			C266.205,688.187,272.883,642.505,289.432,651.119z"/>
	</g>
	<g display="inline">
		<path fill="#CCE1F0" stroke="#788389" stroke-width="4" stroke-miterlimit="10" d="M257.248,752.262
			c0,0,31.491,9.506,28.574,21.902s-48.478,15.521-53.84,6.288c-5.362-9.231-1.759-23.478-0.428-27.122
			C232.884,749.685,257.248,752.262,257.248,752.262z"/>
		<path fill="#98A6B0" stroke="#788389" stroke-width="4" stroke-miterlimit="10" d="M239.541,663.644
			c0,0-4.142,41.509-4.723,57.078c-0.581,15.569-10.453,44.603,2.322,45.184c12.775,0.581,29.034-5.226,33.68-4.064
			s8.129-16.865,5.226-35.725s1.452-58.951-8.855-62.133C256.884,660.803,239.541,663.644,239.541,663.644z"/>
	</g>
	<path display="inline" fill="#CCE1F0" stroke="#788389" stroke-width="4" stroke-miterlimit="10" d="M305.981,664.902
		c0,4.478-3.685,8.108-8.23,8.108h-53.612c-4.545,0-7.549-2.882-7.549-7.359l6.867-135.694c0-4.478,3.685-8.107,8.23-8.107h41.228
		c4.545,0,13.065,14.754,13.065,19.231V664.902z"/>
	<g display="inline">
		<path fill="#FBD3DE" stroke="#F1656A" stroke-miterlimit="10" d="M338.887,629.883c0,0,1.548,5.854,9.097,5.854
			s10.646-1.645,12.388,2.226c1.742,3.871,5.032,10.646,5.613,11.323c0.581,0.678,7.065,2.129,6.484-2.517
			c-1.258-2.999-1.378-6.677,0.037-5.322c1.415,1.354,6.738,3.392,6.061-2.853c-1.936-3.438-1.839-4.89-0.968-5.857
			s-0.484-3.774-4.936-6.388s-10.646-7.742-11.807-8.42c-1.161-0.678-12.969-2.129-16.646-0.387
			C340.532,619.283,338.887,629.883,338.887,629.883z"/>
		<path fill="#CCE1F0" stroke="#788389" stroke-width="4" stroke-miterlimit="10" d="M343.863,632.748
			c-2.87,3.525-8.053,4.057-11.578,1.188l-71.445-58.165c-3.525-2.869-4.056-8.053-1.187-11.578l8.446-10.374
			c2.87-3.525,8.053-4.057,11.578-1.187l71.445,58.164c3.525,2.869,4.056,8.054,1.186,11.578L343.863,632.748z"/>
	</g>
	<g display="inline">
		<path fill="#F1686E" stroke="#BF525D" stroke-miterlimit="10" d="M315.453,518.421c0,0,7.949,4.558,7.005,8.725
			c-0.943,4.166-1.455,5.217-2.697,6.714c-1.242,1.497-5.968,5.38-7.062,7.287c-1.093,1.906,4.41-12.649,3.572-14.571
			C315.433,524.654,314.488,518.958,315.453,518.421z"/>
		<path fill="#F1686E" stroke="#BF525D" stroke-miterlimit="10" d="M314.289,518.777c0,0,4.746,3.283,5.141,8.121
			c1.05,3.196-0.16,3.798,0.473,5.458c0.633,1.66-6.584-7.364-7.198-9.309C312.089,521.104,312.653,519.871,314.289,518.777z"/>
		<path fill="#F1686E" stroke="#BF525D" stroke-miterlimit="10" d="M312.167,518.458c0,0-2.464,9.154,0.643,12.281
			c3.106,3.126,2.706,7.508,2.706,7.508s3.866-6.91,3.063-9.194C317.776,526.767,312.953,518.427,312.167,518.458z"/>
		<path fill="#F1686E" stroke="#BF525D" stroke-miterlimit="10" d="M310.523,519.073c-0.721-0.59-3.507,8.459-3.718,10.836
			s0.701,1.458,0.5,4.322c-0.2,2.863-0.177,7.008-0.177,7.008s3.552-1.134,4.444-5.137c0.894-4.003,2.558-6.152,2.612-6.875
			C314.239,528.505,311.7,520.036,310.523,519.073z"/>
		<path fill="#F1686E" stroke="#BF525D" stroke-miterlimit="10" d="M308.419,518.71c0,0,3.267,11.25-1.267,19.457
			c-5.308,7.044-5.211,7.665-5.211,7.665s-0.378-21.199,0.551-22.567S306.372,519.265,308.419,518.71z"/>
		<path fill="#F1686E" stroke="#BF525D" stroke-miterlimit="10" d="M302.356,518.979c0,0,2.891,8.83-0.487,16.203
			c-3.379,7.373-4.128,9.249-3.47,10.203c0.659,0.954-3.825-9.11-2.197-12.932S302.356,518.979,302.356,518.979z"/>
		<path fill="#F1686E" stroke="#BF525D" stroke-miterlimit="10" d="M298.681,518.745c0,0,1.721,12.515,0.396,15.79
			s-8.574,7.331-8.971,8.545c-0.396,1.214-0.726-5.748,0.797-7.901C292.427,533.027,296.586,519.273,298.681,518.745z"/>
		<path fill="#F1686E" stroke="#BF525D" stroke-miterlimit="10" d="M294.902,518.912c0,0,2.752,6.761,1.542,10.378
			c-1.21,3.618-9.746,8.953-10.942,10.285c-1.195,1.332-0.387-5.554-0.484-7.195c-0.35-5.865,5.865-13.494,7.032-15.78
			S294.63,518.191,294.902,518.912z"/>
		<path fill="#F1686E" stroke="#BF525D" stroke-miterlimit="10" d="M290.271,513.922c0,0,0.742,12.93,0.613,14.961
			c-0.129,2.032-4,11.271-2.741,12.93c0.455,0.601-5.713-5.268-6.739-8.913C280.328,529.078,287.649,514.724,290.271,513.922z"/>
		<path fill="#F1686E" stroke="#BF525D" stroke-miterlimit="10" d="M283.802,512.546c0,0,4.015,9.911,3.362,12.563
			c-0.651,2.652-5.783,10.084-5.987,11.87c-0.164,1.447-0.059,4.259-0.059,4.259s-5.381-4.237-4.036-11.104
			C278.426,523.268,281.408,513.362,283.802,512.546z"/>
		<path fill="#F1686E" stroke="#BF525D" stroke-miterlimit="10" d="M283.38,506.339c0,0-10.943,10.036-10.364,16.564
			c0.579,6.528,0.008,14.559-0.365,15.209c-0.373,0.65,7.21-7.797,8.246-12.117C281.933,521.677,284.894,507.467,283.38,506.339z"/>
		<path fill="#F1686E" stroke="#BF525D" stroke-miterlimit="10" d="M281.549,498.978c0,0-12,11.879-11.821,20.613
			c0.179,8.734-0.443,9.818-0.754,10.36c-0.312,0.542,7.924-7.536,9.035-11.233C279.122,515.021,282.925,501.352,281.549,498.978z"
			/>
		<path fill="#F1686E" stroke="#BF525D" stroke-miterlimit="10" d="M278.66,489.947c0,0-10.029,11.708-11.204,19.536
			c-1.175,7.828-3.849,16.008-4.675,16.946s9.326-7.217,11.242-13.323C275.94,507,282.037,498.632,278.66,489.947z"/>
		<path fill="#F1686E" stroke="#BF525D" stroke-miterlimit="10" d="M274.623,483.669c0,0-6.024,13.269-10.624,17.519
			c-4.6,4.251-4.407,18.74-5.599,22.828s10.449-9.843,12.837-16.687S276.735,487.523,274.623,483.669z"/>
		<path fill="#F1686E" stroke="#BF525D" stroke-miterlimit="10" d="M268.815,481.487c0,0-3.018,10.699-7.169,16.225
			c-4.152,5.526-6.863,13.017-6.29,19.053c0.572,6.037,0.15,8.532,0.15,8.532s11.032-15.971,13.716-21.655
			C271.906,497.958,276.072,490.693,268.815,481.487z"/>
		<path fill="#F1686E" stroke="#BF525D" stroke-miterlimit="10" d="M275.668,462.539c0,0,0.807,2.058,0.474,4.531
			c-0.223,1.663-0.962,3.514-2.811,5.05c-4.594,3.82-4.607,6.086-4.607,6.086s-1.374-1.675,0.188-4.582
			c1.562-2.907,6.137-9.679,5.959-10.845C274.695,461.614,275.668,462.539,275.668,462.539z"/>
		<path fill="#F1686E" stroke="#BF525D" stroke-miterlimit="10" d="M277.004,472.755c-1.323,2.656-5.069,7.443-6.233,9.36
			s-2.928-2.634-1.922-6.383c1.006-3.75,7.517-9.738,7.293-8.662C275.919,468.145,277.741,471.276,277.004,472.755z"/>
		<path fill="#F1686E" stroke="#BF525D" stroke-miterlimit="10" d="M275.564,472.87c0,0,2.67,4.244,1.921,6.383
			c-0.747,2.14-6.685,8.279-6.003,9.466c0.682,1.187,0.416,2.833,0.416,2.833s-3.111-10.551-0.862-13.491
			C273.284,475.123,275.564,472.87,275.564,472.87z"/>
		<path fill="#F1686E" stroke="#BF525D" stroke-miterlimit="10" d="M276.239,480.419c0,0,3.479,5.044,3.306,7.359
			c-0.173,2.315-4.734,9.557-4.549,10.831s-3.711-11.826-1.233-15.007C276.239,480.419,276.239,480.419,276.239,480.419z"/>
		<path fill="#F1686E" stroke="#BF525D" stroke-miterlimit="10" d="M273.129,454.53c0,0-5.644,13.78-11.214,14.935
			c2.444,1.179,7.929,2.313,10.864-3.966c2.934-6.28,2.527-3.604,2.191-4.721C274.634,459.66,273.129,454.53,273.129,454.53z"/>
		<path fill="#F1686E" stroke="#BF525D" stroke-miterlimit="10" d="M270.307,464.328c0,0-3.508,4.015-3.836,11.598
			c2.378-0.194,5.323-5.5,5.213-6.955C271.573,467.516,270.307,464.328,270.307,464.328z"/>
	</g>
	<g display="inline">
		<path fill="#F1686E" stroke="#BF525D" stroke-miterlimit="10" d="M296.656,392.365c0,0-4.519-6.272-33.396,1.568
			c-1.358-0.329-7.864-2.585-10.195,0.911c-2.332,3.495,15.014,15.375,28.876,9.439
			C295.804,398.346,296.656,392.365,296.656,392.365z"/>
		<path fill="#F1686E" stroke="#BF525D" stroke-miterlimit="10" d="M213.405,461.156c0,0-0.555,37.926-4.103,44.597
			s-2.914,24.517-2.914,24.517c3.643-5.243,19.568-34.222,21.508-42.196c1.94-7.975-0.896-32.247-3.359-32.356
			C222.074,455.607,213.405,461.156,213.405,461.156z"/>
		<path fill="#F1686E" stroke="#BF525D" stroke-miterlimit="10" d="M317.292,422.987c0,0,2.263,6.33,6.498,4.54
			c0.801-0.861,6.806-20.17-4.446-29.087c-2.851-2.67-14.558-12.364-29.968-5.747c-3.097,1.574-14.914,11.03-29.929,6.527
			c-2.819-1.04-10.808-3.633,0.37-6.364c-1.712-0.726-12.632-0.265-12.937,4.993c-0.306,5.257-4.109,12.554,16.686,12.381
			C284.361,410.057,316.655,421.605,317.292,422.987z"/>
		<path fill="#F1686E" stroke="#BF525D" stroke-miterlimit="10" d="M215.173,437.296c0,0-5.989,9.883-3.845,33.547
			c0.076,7.517-5.987,9.289-6.475,14.375c6.67-3.178,15.673-17.063,19.063-27.23C227.307,447.822,217.687,440.639,215.173,437.296z"
			/>
		<path fill="#F1686E" stroke="#BF525D" stroke-miterlimit="10" d="M231.637,466.681c0,0-10.334,13.757-15.271,35.508
			c-4.213,20.79-0.295,21.184-3.831,25.153c4.774-6.901-1.657-5.585,10.548-22.26c12.206-16.675,23.529-23.773,17.735-33.548
			C235.025,461.761,231.637,466.681,231.637,466.681z"/>
		<path fill="#F1686E" stroke="#BF525D" stroke-miterlimit="10" d="M232.244,421.351c0,0-12.702,3.114-17.6,9.834
			c-4.897,6.72-6.715,9.975-7.232,10.268c-0.518,0.293,9.625-1.873,15.148-6.435C228.084,430.456,231.89,423.128,232.244,421.351z"
			/>
		<path fill="#F1686E" stroke="#BF525D" stroke-miterlimit="10" d="M215.052,464.333c0,0-7.717,20.846-8.275,30.475
			c0,0,1.815,14.342,2.043,19.247c2.389-9.328,6.517-27.769,6.747-33.937c0.231-6.167,14.684-11.846,11.729-17.784
			C224.343,456.397,215.052,464.333,215.052,464.333z"/>
		<path fill="#F1686E" stroke="#BF525D" stroke-miterlimit="10" d="M238.21,398.363c0,0,8.021-2.289,9.38-1.959
			c1.358,0.329,0.149,3.89,2.456,5.151c2.305,1.261,6.8,3.65,22.167-0.09c13.57-2.968,35.348-7.133,43.511,5.383
			c3.365,6.729,5.152,10.463,3.743,19.647c-1.666,0.655-6.584,1.246-8.561-1.373s-31.176-21.588-48.339-14.949
			c-17.164,6.639-35.915-1.805-32.102-8.549C233.646,399.35,238.21,398.363,238.21,398.363z"/>
		<path fill="#F1686E" stroke="#BF525D" stroke-miterlimit="10" d="M229.836,480.099c0,0-5.32,26.903-11.468,40.069
			c-6.148,13.166-9.636,21.478-9.636,21.478s14.274-12.643,17.89-25.088c3.617-12.446,15.881-22.768,13.652-29.282
			S230.854,479.823,229.836,480.099z"/>
		<path fill="#F1686E" stroke="#BF525D" stroke-miterlimit="10" d="M242.001,463.188c0,0,2.75,13.895-2.135,21.395
			c-4.884,7.5-10.408,7.744-12.133,14.457c-1.726,6.712-1.788-13.187-2.765-21.562c-0.976-8.375,3.925-19.726,12.442-24.069
			C245.93,449.066,242.001,463.188,242.001,463.188z"/>
		<path fill="#F1686E" stroke="#BF525D" stroke-miterlimit="10" d="M227.207,459.745c0,0,0.348,19.385-4.364,25.791
			c-3.873,3.448-2.903,3.145-0.959-6.567c1.943-9.712-2.927-21.4-2.531-28.208C219.747,443.953,228.068,445.296,227.207,459.745z"/>
		<path fill="#F1686E" stroke="#BF525D" stroke-miterlimit="10" d="M224.389,427.235c0,0-8.689,0.873-6.581,22.782
			c0.139,8.397,0.477,10.044-1.441,11.311c3.092-3.076,14.713-17.754,14.811-30.231C231.275,418.62,224.389,427.235,224.389,427.235
			z"/>
		<path fill="#F1686E" stroke="#BF525D" stroke-miterlimit="10" d="M223.433,431.695c0,0-11.952,10.818-14.137,25.445
			c-3.244,9.892-3.734,15.874-3.734,15.874s14.659-32.742,20.686-32.393S223.433,431.695,223.433,431.695z"/>
		<path fill="#F1686E" stroke="#BF525D" stroke-miterlimit="10" d="M271.235,416.892c0,0-40.026-3.571-40.737-8.582
			s-6.642-3.518-7.199-2.549c-3.305,2.313-5.762,3.181-6.694,11.799c-0.933,8.617-2.439,10.376,9.462,9.564
			c11.9-0.812,24.911-3.496,29.032-5.46C259.218,419.7,271.235,416.892,271.235,416.892z"/>
		<path fill="#F1686E" stroke="#BF525D" stroke-miterlimit="10" d="M269.21,418.676c0,0-29.944,6.794-37.304,10.624
			c-7.358,3.83-10.017,11.063-16.997,12.536c2.078,0.747,17.088-3.499,22.027-6.539c4.94-3.04,20.664-2.127,24.948-4.758
			C266.17,427.908,269.806,419.194,269.21,418.676z"/>
		<path fill="#F1686E" stroke="#BF525D" stroke-miterlimit="10" d="M251.647,450.896c0,0-13.433,6.315-16.93,21.305
			c3.219-2.234,18.939-8.715,19.173-12.472c0.232-3.758-1.395-7.615-2.575-8.852"/>
		<path fill="#F1686E" stroke="#BF525D" stroke-miterlimit="10" d="M260.076,427.93c0,0-35.933-5.09-31.982,27.526
			c1.671-2.908,9.966-16.964,25.489-22.082C269.105,428.256,258.14,429.654,260.076,427.93z"/>
		<path fill="#F1686E" stroke="#BF525D" stroke-miterlimit="10" d="M243.244,484.217c0,0-1.476,29.611-16.064,41.638
			c-11.104,8.199-9.188,0.802-9.188,0.802S237.958,486.952,243.244,484.217z"/>
		<path fill="#F1686E" stroke="#BF525D" stroke-miterlimit="10" d="M289.662,433.045c0,0-1.98,2.497-0.354,6.097
			c1.628,3.601,2.688,8.336,1.075,10.246c-1.614,1.91-17.407,0.763-26.626,4.266c-9.219,3.504-20.678,9.85-21.268,16.327
			c2.264-11.054,15.433-23.42,31.023-32.561C289.105,428.279,289.662,433.045,289.662,433.045z"/>
		<path fill="#F1686E" stroke="#BF525D" stroke-miterlimit="10" d="M273.854,420.639c0,0-8.523,2.337-16.992,5.852
			c-8.468,3.515-20.257,3.833-27.563,8.917s-6.916,6.986-7.231,8.095c2.26-2.248,17.981-11.292,25.022-10.436
			c7.041,0.857,10.498,2.495,15.849,0.92C268.289,432.413,284.179,424.652,273.854,420.639z"/>
		<path fill="#F1686E" stroke="#BF525D" stroke-miterlimit="10" d="M243.254,441.607c0,0-9.749,4.02-12.16,16.798
			c-2.287,7.777-9.896,13.011-9.896,13.011s3.661-26.072,11.075-30.446C239.687,436.596,241.946,441.162,243.254,441.607z"/>
		<path fill="#F1686E" stroke="#BF525D" stroke-miterlimit="10" d="M247.639,468.697c0,0,4.116,22.023-0.326,35.288
			c-4.442,13.265-9.227,16.494-9.001,17.675c0.228,1.182-9.351,4.465-9.477,6.628c1.452-7.094,12.078-17.434,10.717-28.563
			c-1.363-11.129-2.523-12.414,1.014-27.185C244.104,457.77,247.639,468.697,247.639,468.697z"/>
		<path fill="#F1686E" stroke="#BF525D" stroke-miterlimit="10" d="M242.562,453.542c0,0-11.583,11.264-10.747,23.417
			c-1.242-6.667-3.847-11.994-1.603-20.628C232.458,447.697,240.36,448.321,242.562,453.542z"/>
		<path fill="#F1686E" stroke="#BF525D" stroke-miterlimit="10" d="M248.026,477.321c0,0-0.892,1.229,2.983,11.995
			c3.876,10.767,2.754,12.204,6.54,17.767c-6.156-4.364-15.449-11.081-16.499-27.502
			C240.001,463.16,248.026,477.321,248.026,477.321z"/>
		<path fill="#F1686E" stroke="#BF525D" stroke-miterlimit="10" d="M263.469,449.997c0,0-24.973,4.56-30.44,21.104
			c0.432-10.325,9.081-27.019,18.64-30.638C261.228,436.845,263.18,446.339,263.469,449.997z"/>
		<path fill="#F1686E" stroke="#BF525D" stroke-miterlimit="10" d="M251.958,466.54c0,0-1.018,5.435-0.482,8.304
			c0.536,2.869,1.008,3.356-6.725,10.023c-7.732,6.667-16.196,20.199-16.662,25.348c0,0,13.86-45.064,20.091-50.817
			C254.41,453.645,252.193,465.082,251.958,466.54z"/>
		<path fill="#F1686E" stroke="#BF525D" stroke-miterlimit="10" d="M258.263,437.94c0,0-22.967,15.763-25.342,19.966
			c-2.376,4.203,1.558-15.938,11.297-17.708C253.957,438.426,258.263,437.94,258.263,437.94z"/>
		<path fill="#F1686E" stroke="#BF525D" stroke-miterlimit="10" d="M290.954,423.746c0,0-1.144,0.276-6.88,4.2
			c-5.737,3.924-23.166,19.44-51.825,14.896c-3.927,0.773-5.136,2.081-5,7.348c0.135,5.267-3.192-6.446,4.454-10.885
			c7.645-4.439,31.102-5.181,35.35-9.33S286.579,417.139,290.954,423.746z"/>
		<path fill="#F1686E" stroke="#BF525D" stroke-miterlimit="10" d="M294.066,426.212c0,0-0.353,3.92-4.182,7.33
			c-3.83,3.408-17.434,9.129-29.506,12.186c-12.072,3.055-31.998,7.659-37.946,4.433c1.431-0.918,41.063-8.509,45.089-13.159
			C271.547,432.352,280.023,420.079,294.066,426.212z"/>
		<path fill="#F1686E" stroke="#BF525D" stroke-miterlimit="10" d="M301.698,424.169c0,0-1.875,5.233-16.449,2.384
			c-14.576-2.85-27.267-4.087-40.248,0.167c-6.453,3.966-19.681,10.376-30.494-1.771c-0.374-2.191-0.958-9.405,2.684-8.859
			c2.293,3.639,9.54,11.093,22.223,8.313c7.966-2.053,8.292-4.791,16.44-7.112C264.001,414.969,292.305,401.921,301.698,424.169z"/>
		<path fill="#F1686E" stroke="#BF525D" stroke-miterlimit="10" d="M299.906,426.987c0,0,4.7,3.152,12.441-0.78
			c0.087-1.498,1.15-20.093-22.01-22.188c-6.07-0.979-15.093-3.005-33.953,2.662c-4.33,1.251-33.011,7.85-14.907-8.503
			c0.888-0.199-2.879-2.17-7.831,1.173c-4.952,3.344-13.286,8.87-1.021,17.596c10.668,3.875,15.88,4.678,17.913,4.17
			c2.033-0.508,28.793-13.105,38.916-1.874C296.204,423.892,299.906,426.987,299.906,426.987z"/>
		<path fill="#F1686E" stroke="#BF525D" stroke-miterlimit="10" d="M284.746,448.728c0,0-14.399,9.347-17.052,9.027
			c-2.653-0.321-9.8-3.741-13.982,5.032c-4.183,8.772-3.888,9.457-7.194,11.769c-3.307,2.313-8.217,6.368-9.576,6.79
			c-1.36,0.422,8.987-12.834,10.878-15.729C249.708,462.721,259.233,439.567,284.746,448.728z"/>
	</g>
	<path display="inline" fill="#FBD3DE" stroke="#F1656A" stroke-miterlimit="10" d="M322.286,504.664c0,0-5.988,0.122-9.824-1.271"
		/>
</g>
<g id="Animation_-_powerup" display="none">
	<polygon display="inline" fill="#FFFFFF" fill-opacity="0.3" points="1334.529,585.719 1242.88,585.719 1197.057,665.089 
		1242.88,744.46 1334.529,744.46 1380.354,665.089 	"/>
	<polygon display="inline" fill="#FFFFFF" fill-opacity="0.3" points="1342.49,572.695 1234.919,572.695 1181.134,665.854 
		1234.919,759.015 1342.49,759.015 1396.275,665.854 	"/>
	<g display="inline">
		<g>
			<path fill="#B74F5A" stroke="#9B434C" stroke-miterlimit="10" d="M1329.299,595.331h-81.189l-40.594,70.311l40.594,70.313h81.189
				l40.594-70.313L1329.299,595.331z M1327.116,732.174h-76.824l-38.411-66.532l38.411-66.531h76.824l38.411,66.531
				L1327.116,732.174z"/>
			<polygon fill="#F1666C" points="1327.116,599.11 1250.292,599.11 1211.881,665.642 1250.292,732.174 1327.116,732.174 
				1365.527,665.642 			"/>
		</g>
		<g>
			<circle fill="#CCE1F0" cx="1306.933" cy="665.855" r="25.777"/>
			<g opacity="0.8">
				<path fill="#CCE1F0" d="M1276.068,665.855c0-11.612,6.858-21.618,16.742-26.203c-13.077,1.243-23.309,12.253-23.309,25.656
					c0,12.401,8.76,22.755,20.43,25.217C1281.618,685.457,1276.068,676.304,1276.068,665.855z"/>
			</g>
			<g opacity="0.6">
				<path fill="#CCE1F0" d="M1262.718,665.834c0-11.281,6.662-21,16.264-25.455c-12.704,1.207-22.643,11.903-22.643,24.923
					c0,12.048,8.509,22.105,19.846,24.497C1268.107,684.875,1262.718,675.983,1262.718,665.834z"/>
			</g>
			<g opacity="0.4">
				<path fill="#CCE1F0" d="M1250.544,666.539c0-10.341,6.107-19.251,14.909-23.334c-11.645,1.107-20.755,10.91-20.755,22.846
					c0,11.043,7.8,20.262,18.191,22.455C1255.487,683.992,1250.544,675.842,1250.544,666.539z"/>
			</g>
		</g>
	</g>
</g>
</svg>
